<svg width="22" height="22" viewBox="0 0 22 22" fill="none" xmlns="http://www.w3.org/2000/svg">
<g clip-path="url(#clip0_1159_6623)">
<path d="M10.9952 0C4.92854 0 0 4.93819 0 11.0048C0 17.0715 4.92854 22 10.9952 22C12.8566 22 14.6795 21.537 16.2806 20.6497C18.1324 19.6274 19.6563 18.1035 20.6786 16.2324C21.537 14.6313 21.9904 12.8277 21.9904 11.0048C22 4.93819 17.0618 0 10.9952 0ZM19.4152 15.5476C18.5278 17.1776 17.2065 18.4989 15.5861 19.3862C14.1973 20.1482 12.6059 20.5533 10.9952 20.5533C5.72907 20.5533 1.44673 16.2709 1.44673 11.0048C1.44673 5.73871 5.72907 1.44673 10.9952 1.44673C16.2613 1.44673 20.5533 5.73871 20.5533 11.0048C20.5533 12.5866 20.1578 14.1587 19.4152 15.5476Z" fill="#4D4D4D"/>
<path d="M11.7186 5.17969H10.2718V10.2818H5.16968V11.7286H10.2718V16.8307H11.7186V11.7286H16.8207V10.2818H11.7186V5.17969Z" fill="#4D4D4D"/>
</g>
<defs>
<clipPath id="clip0_1159_6623">
<rect width="22" height="22" fill="white"/>
</clipPath>
</defs>
</svg>
