<svg width="27" height="25" viewBox="0 0 27 25" fill="none" xmlns="http://www.w3.org/2000/svg">
<g clip-path="url(#clip0_1639_2909)">
<path d="M26 2.61H20.3V1C20.3 0.44 19.85 0 19.3 0C18.75 0 18.3 0.44 18.3 1V2.61H8.69V1C8.69 0.44 8.24 0 7.69 0C7.14 0 6.69 0.44 6.69 1V2.61H1C0.45 2.61 0 3.06 0 3.61V23.54C0 24.09 0.45 24.54 1 24.54H26C26.55 24.54 27 24.09 27 23.54V3.61C27 3.06 26.55 2.61 26 2.61ZM25 22.54H2V11.63H25V22.54ZM25 9.63H2V4.61H6.69V6.52C6.69 7.07 7.14 7.52 7.69 7.52C8.24 7.52 8.69 7.07 8.69 6.52V4.61H18.3V6.52C18.3 7.07 18.75 7.52 19.3 7.52C19.85 7.52 20.3 7.07 20.3 6.52V4.61H25V9.63Z" fill="#242427"/>
</g>
<defs>
<clipPath id="clip0_1639_2909">
<rect width="27" height="24.54" fill="white"/>
</clipPath>
</defs>
</svg>
