<svg width="22" height="24" viewBox="0 0 22 24" fill="none" xmlns="http://www.w3.org/2000/svg">
<g clip-path="url(#clip0_1159_6611)">
<path d="M11 2.99402C12.2287 2.99402 13.3989 3.23316 14.4814 3.66361L12.9016 3.99841L13.2429 5.5289L17.2704 4.66799C17.5142 4.6106 17.719 4.44799 17.8262 4.22798C17.9335 4.00797 17.914 3.74014 17.797 3.52969L15.7784 0L14.3839 0.765245L15.2518 2.29574C13.945 1.7505 12.5018 1.43483 10.9902 1.43483C4.9344 1.43483 0 6.27501 0 12.2248C0 14.3196 0.624113 16.2615 1.6773 17.9163L2.83777 16.778C2.05762 15.4293 1.59929 13.8796 1.59929 12.2248C1.58954 7.13591 5.81206 2.99402 11 2.99402Z" fill="#4D4D4D"/>
<path d="M21.9999 12.2151C21.9999 18.1649 17.0655 23.0051 10.9999 23.0051C9.28361 23.0051 7.65506 22.6033 6.20205 21.905L6.82616 23.4068L5.35364 23.9999L3.79336 20.2597C3.70559 20.0302 3.7251 19.7719 3.85187 19.5615C3.98839 19.351 4.21268 19.2075 4.45648 19.1884L8.56198 18.8058L8.70825 20.365L6.97244 20.5276C8.20116 21.1015 9.55666 21.4459 10.9999 21.4459C16.1879 21.4459 20.4006 17.304 20.4006 12.2151C20.4006 10.522 19.9228 8.94368 19.1134 7.5758L20.2641 6.4375C21.3563 8.11147 21.9999 10.0915 21.9999 12.2151Z" fill="#4D4D4D"/>
<path d="M8.16221 12.1205L7.03101 13.2301L9.80051 15.9468C9.94679 16.0902 10.1516 16.1763 10.3661 16.1763C10.3954 16.1763 10.4246 16.1763 10.4539 16.1763C10.6977 16.1476 10.9122 16.0137 11.039 15.8128L15.0957 9.48044L13.75 8.63867L10.2198 14.1389L8.16221 12.1205Z" fill="#4D4D4D"/>
</g>
<defs>
<clipPath id="clip0_1159_6611">
<rect width="22" height="24" fill="white"/>
</clipPath>
</defs>
</svg>
