<svg width="58" height="65" viewBox="0 0 58 65" fill="none" xmlns="http://www.w3.org/2000/svg">
<g clip-path="url(#clip0_1639_993)">
<path d="M24.8898 0C16.8398 0 9.17977 3 3.28977 8.34L3.59977 2.89C3.64977 2.05 2.99977 1.32 2.15977 1.27C1.32977 1.22 0.589766 1.87 0.549766 2.71L0.00976562 12.15C0.00976562 12.15 0.00976562 12.21 0.00976562 12.24V12.34C0.00976562 12.34 0.00976562 12.38 0.00976562 12.41C0.00976562 12.44 0.00976562 12.46 0.00976562 12.49C0.0297656 12.87 0.179766 13.24 0.449766 13.51C0.739766 13.8 1.12977 13.96 1.52977 13.96C1.55977 13.96 1.58977 13.96 1.61977 13.96L11.2498 13.41C12.0898 13.36 12.7398 12.64 12.6898 11.79C12.6398 10.95 11.9098 10.28 11.0798 10.35L5.26977 10.68C10.6098 5.81 17.5798 3.06 24.8898 3.06C40.9398 3.06 53.9998 16.12 53.9998 32.17C53.9998 48.22 40.9398 61.28 24.8898 61.28C24.0398 61.28 23.3598 61.97 23.3598 62.81C23.3598 63.65 24.0498 64.34 24.8898 64.34C42.6298 64.34 57.0598 49.91 57.0598 32.17C57.0598 14.43 42.6298 0 24.8898 0Z" fill="#242427"/>
<path d="M45.8502 32.1699C45.8502 20.7499 36.5602 11.45 25.1302 11.45C13.7002 11.45 4.41016 20.7499 4.41016 32.1699C4.41016 43.59 13.7002 52.8899 25.1302 52.8899C36.5602 52.8899 45.8502 43.5999 45.8502 32.1699ZM7.47016 32.1699C7.47016 22.4299 15.3902 14.51 25.1302 14.51C34.8702 14.51 42.7902 22.4299 42.7902 32.1699C42.7902 41.9099 34.8702 49.83 25.1302 49.83C15.3902 49.83 7.47016 41.9099 7.47016 32.1699Z" fill="#242427"/>
<path d="M36.1796 35.58C37.0296 35.58 37.7096 34.89 37.7096 34.05C37.7096 33.21 37.0196 32.52 36.1796 32.52H26.6596V23.29C26.6596 22.44 25.9696 21.76 25.1296 21.76C24.2896 21.76 23.5996 22.45 23.5996 23.29V34.05C23.5996 34.9 24.2896 35.58 25.1296 35.58H36.1796Z" fill="#242427"/>
</g>
<defs>
<clipPath id="clip0_1639_993">
<rect width="57.06" height="64.35" fill="white"/>
</clipPath>
</defs>
</svg>
