<svg width="34" height="49" viewBox="0 0 34 49" xmlns="http://www.w3.org/2000/svg">
<path d="M29.9574 48.7H3.99432C1.68991 48.7 0 46.8565 0 44.7057V20.4325C0 18.1281 1.84353 16.2845 3.99432 16.2845H5.5306V11.3685C5.5306 5.06972 10.6003 0 16.8991 0C23.1978 0 28.2675 5.06972 28.2675 11.3685V16.2845H29.8038C32.1082 16.2845 33.7981 18.1281 33.7981 20.2789V44.552C33.9517 46.8565 32.1082 48.7 29.9574 48.7ZM3.99432 18.589C3.07256 18.589 2.30442 19.3571 2.30442 20.2789V44.552C2.30442 45.4738 3.07256 46.242 3.99432 46.242H29.9574C30.8792 46.242 31.6473 45.4738 31.6473 44.552V20.4325C31.6473 19.5107 30.8792 18.7426 29.9574 18.7426H27.1921C26.5776 18.7426 25.9631 18.2817 25.9631 17.5136V11.3685C25.9631 6.29874 21.8151 2.30442 16.8991 2.30442C11.8293 2.30442 7.83502 6.45237 7.83502 11.3685V17.5136C7.83502 18.1281 7.37413 18.7426 6.60599 18.7426H3.99432V18.589ZM21.6615 18.589H12.2902C11.6757 18.589 11.0612 18.1281 11.0612 17.3599V11.983C11.0612 8.75678 13.6729 6.14511 16.8991 6.14511C20.1252 6.14511 22.7369 8.75678 22.7369 11.983V17.3599C22.8905 18.1281 22.4297 18.589 21.6615 18.589ZM13.3656 16.2845H20.5861V11.983C20.5861 9.9858 19.0498 8.44953 17.0527 8.44953C15.0555 8.44953 13.5192 9.9858 13.5192 11.983V16.2845H13.3656Z"/>
<path d="M18.8958 39.0212H15.2087C14.5942 39.0212 13.9797 38.5604 13.9797 37.7922V32.8761C13.2116 32.108 12.9043 31.0326 12.9043 30.1108C12.9043 27.8064 14.7478 25.9629 17.0522 25.9629C19.3567 25.9629 21.2002 27.8064 21.2002 30.1108C21.2002 31.1862 20.7393 32.108 20.1248 32.8761V37.7922C19.9712 38.5604 19.5103 39.0212 18.8958 39.0212ZM16.2841 36.7168H17.6668V32.4153C17.6668 32.108 17.8204 31.8007 18.1276 31.4935C18.5885 31.1862 18.8958 30.5717 18.8958 30.1108C18.8958 29.0354 18.1276 28.2673 17.0522 28.2673C15.9769 28.2673 15.2087 29.0354 15.2087 30.1108C15.2087 30.7254 15.516 31.1862 15.9769 31.4935C16.2841 31.6471 16.4377 32.108 16.4377 32.4153V36.7168H16.2841Z"/>
</svg>
