<svg width="77" height="65" viewBox="0 0 77 65" fill="none" xmlns="http://www.w3.org/2000/svg">
<g clip-path="url(#clip0_1639_1788)">
<path d="M75.78 23.87L68.54 16.64C67.94 16.04 66.97 16.04 66.38 16.64L48.96 34.06V14.79C48.96 14.64 48.94 14.48 48.89 14.35C48.88 14.31 48.87 14.27 48.85 14.23C48.82 14.14 48.77 14.05 48.71 13.96C48.66 13.87 48.59 13.79 48.52 13.72L35.24 0.44C35.1 0.3 34.93 0.19 34.75 0.12C34.66 0.08 34.56 0.05 34.46 0.03C34.36 0.01 34.26 0 34.16 0H3.03C1.36 0 0 1.35 0 3.02V61.51C0 63.18 1.36 64.54 3.03 64.54H45.94C47.61 64.54 48.96 63.18 48.96 61.51V52.86L75.78 26.04C76.07 25.75 76.23 25.36 76.23 24.96C76.23 24.56 76.07 24.16 75.78 23.87ZM35.69 5.22L43.74 13.27H35.69V5.22ZM3.07 61.51L3.03 3.06H32.63V13.31C32.63 14.97 33.99 16.33 35.65 16.33H45.9L45.92 37.1L38.21 44.82C38.01 44.98 37.86 45.18 37.76 45.42L36.74 47.9H9.02C8.17 47.9 7.49 48.58 7.49 49.43C7.49 50.28 8.17 50.96 9.02 50.96H35.49L32.74 57.67C32.51 58.25 32.64 58.9 33.08 59.34C33.37 59.63 33.76 59.79 34.16 59.79C34.36 59.79 34.55 59.75 34.74 59.67L45.93 55.08V61.47L3.07 61.51ZM41.25 50.23L43.7 52.69L36.96 55.45L38.81 50.96L39.73 48.71L41.25 50.23ZM48.96 48.53L46.42 51.07L45.93 50.58L41.34 46L62.97 24.37L68.04 29.45L48.96 48.53ZM70.21 27.28L65.13 22.21L67.46 19.88L72.53 24.96L70.21 27.28Z" fill="#242427"/>
<path d="M9.02024 16.63H25.6202C26.4702 16.63 27.1502 15.94 27.1502 15.1C27.1502 14.26 26.4602 13.57 25.6202 13.57H9.02024C8.17024 13.57 7.49023 14.26 7.49023 15.1C7.49023 15.94 8.18024 16.63 9.02024 16.63Z" fill="#242427"/>
<path d="M9.02024 28.08H39.9502C40.8002 28.08 41.4802 27.39 41.4802 26.55C41.4802 25.71 40.7902 25.02 39.9502 25.02H9.02024C8.17024 25.02 7.49023 25.71 7.49023 26.55C7.49023 27.39 8.18024 28.08 9.02024 28.08Z" fill="#242427"/>
<path d="M9.02024 39.52H39.9502C40.8002 39.52 41.4802 38.83 41.4802 37.99C41.4802 37.15 40.7902 36.46 39.9502 36.46H9.02024C8.17024 36.46 7.49023 37.15 7.49023 37.99C7.49023 38.83 8.18024 39.52 9.02024 39.52Z" fill="#242427"/>
</g>
<defs>
<clipPath id="clip0_1639_1788">
<rect width="76.23" height="64.54" fill="white"/>
</clipPath>
</defs>
</svg>
