<svg width="20" height="20" viewBox="0 0 29 29" fill="none" xmlns="http://www.w3.org/2000/svg">
<path d="M14.5759 0C6.5288 0 0 6.5288 0 14.5759C0 22.623 6.5288 29.1518 14.5759 29.1518C22.623 29.1518 29.1518 22.623 29.1518 14.5759C29.1518 6.5288 22.4712 0 14.5759 0ZM26.7225 14.5759C26.7225 17.6126 25.6597 20.1937 23.8377 22.3194L6.68063 5.1623C8.80628 3.34031 11.5393 2.27749 14.4241 2.27749C21.2565 2.27749 26.7225 7.74346 26.7225 14.5759ZM2.27749 14.5759C2.27749 11.5393 3.34031 8.95811 5.1623 6.83246L22.3194 23.9895C20.1937 25.8115 17.4607 26.8743 14.5759 26.8743C7.74346 26.7225 2.27749 21.2565 2.27749 14.5759Z" fill="#FF0000"/>
</svg>
