<svg width="37" height="35" viewBox="0 0 37 35" fill="inherit" xmlns="http://www.w3.org/2000/svg">
<path d="M36 0H10.48C9.91997 0 9.47997 0.45 9.47997 1V5.53L0.739967 7.87C0.209967 8.01 -0.110033 8.56 0.0299675 9.09L6.63997 33.74C6.75997 34.19 7.15997 34.49 7.59997 34.49C7.68997 34.49 7.77997 34.48 7.85997 34.45L32.51 27.85C32.72 27.79 32.89 27.67 33.01 27.52H36C36.55 27.52 37 27.07 37 26.52V1C37 0.45 36.55 0 36 0ZM8.30997 32.26L2.21997 9.54L9.47997 7.59V26.52C9.47997 27.07 9.91997 27.52 10.48 27.52H25.99L8.30997 32.26ZM35 25.52H11.48V2H35V25.52Z"/>
<path d="M14.9799 22.98H31.4899C31.7499 22.98 31.9899 22.88 32.1699 22.71C32.2299 22.66 32.2899 22.59 32.3299 22.52C32.5199 22.23 32.5399 21.87 32.3999 21.56L31.1399 18.86L26.5599 9.00999C26.5099 8.89999 26.4399 8.80999 26.3599 8.73999C26.1899 8.55999 25.9599 8.44999 25.7099 8.43999C25.3399 8.41999 24.9899 8.59999 24.7999 8.90999L21.3299 14.56L19.8699 12.97C19.6499 12.73 19.3099 12.61 18.9899 12.66C18.6699 12.71 18.3799 12.91 18.2399 13.21L14.0899 21.53C13.9299 21.84 13.9499 22.21 14.1299 22.51C14.3199 22.8 14.6399 22.98 14.9799 22.98ZM19.3799 15.4L20.7499 16.88C20.9699 17.11 21.2699 17.23 21.5899 17.2C21.8999 17.17 22.1799 16.99 22.3399 16.73L25.5299 11.54L29.2599 19.55V19.59L29.9199 20.98H16.5999L19.3799 15.4Z"/>
</svg>
