<svg width="81" height="66" viewBox="0 0 81 66" fill="none" xmlns="http://www.w3.org/2000/svg">
<path d="M80.2 23.87L72.96 16.64C72.67 16.35 72.28 16.19 71.88 16.19C71.76 16.19 71.63 16.2 71.52 16.24V1.53C71.52 0.68 70.83 0 69.99 0H10.27C9.43 0 8.74 0.68 8.74 1.53V16.24H1.53C0.68 16.24 0 16.93 0 17.78V59.91C0 63.07 2.57 65.64 5.73 65.64H62.06C67.28 65.64 71.52 61.4 71.52 56.18V34.72L80.2 26.04C80.79 25.44 80.79 24.47 80.2 23.87ZM8.74 59.91C8.74 61.38 7.54 62.58 6.07 62.58H5.73C5.64 62.58 5.55 62.58 5.46 62.57C4.11 62.43 3.06 61.29 3.06 59.91V19.31H8.74V59.91ZM68.46 56.18C68.46 59.71 65.59 62.58 62.06 62.58H11.14C11.56 61.78 11.8 60.87 11.8 59.91V3.06H68.46V18.97L56.37 31.06H18.17C17.32 31.06 16.64 31.75 16.64 32.59C16.64 33.43 17.32 34.12 18.17 34.12H53.31L45.98 41.45H18.17C17.32 41.45 16.64 42.13 16.64 42.98C16.64 43.83 17.32 44.51 18.17 44.51H42.92L42.62 44.82C42.57 44.86 42.53 44.9 42.48 44.95C42.42 45.01 42.37 45.07 42.33 45.14C42.27 45.23 42.22 45.32 42.18 45.42V45.45L39.56 51.83H18.17C17.32 51.83 16.64 52.51 16.64 53.36C16.64 54.21 17.32 54.89 18.17 54.89H38.3L37.16 57.68C36.93 58.25 37.06 58.9 37.49 59.34C37.79 59.63 38.18 59.79 38.58 59.79C38.77 59.79 38.97 59.75 39.16 59.67L50.82 54.89H62.09C62.94 54.89 63.62 54.21 63.62 53.36C63.62 52.51 62.94 51.83 62.09 51.83H54.4L62.17 44.06L68.46 37.78V56.18ZM44.14 48.71L48.12 52.69L42.75 54.89L41.38 55.45L41.61 54.89L42.86 51.83L44.14 48.71ZM68.46 33.45L60.45 41.45L50.83 51.07L45.76 46L60.7 31.06L67.39 24.38L72.46 29.45L68.46 33.45ZM74.63 27.28L71.52 24.18L69.55 22.21L71.88 19.88L76.95 24.96L74.63 27.28Z" fill="#242427"/>
<path d="M18.1696 23.74H62.0896C62.9396 23.74 63.6196 23.05 63.6196 22.21V8.16C63.6196 7.31 62.9296 6.63 62.0896 6.63H18.1696C17.3196 6.63 16.6396 7.32 16.6396 8.16V22.21C16.6396 23.06 17.3296 23.74 18.1696 23.74ZM19.6996 9.7H60.5597V20.68H19.6996V9.7Z" fill="#242427"/>
</svg>
