<svg width="89" height="74" viewBox="0 0 89 74" fill="none" xmlns="http://www.w3.org/2000/svg">
<g filter="url(#filter0_d_1847_2)">
<path d="M76.6064 16.9936L76.6067 16.9938L83.8435 24.2206C83.8439 24.221 83.8444 24.2215 83.8448 24.2219C84.2418 24.6271 84.2417 25.2831 83.8447 25.6882C83.8443 25.6886 83.8439 25.689 83.8435 25.6894L75.1664 34.3664L75.02 34.5129V34.72V56.18C75.02 61.1239 71.0039 65.14 66.06 65.14H9.73C6.84614 65.14 4.5 62.7939 4.5 59.91V17.78C4.5 17.2019 4.96038 16.74 5.53 16.74H12.74H13.24V16.24V1.53C13.24 0.958268 13.704 0.5 14.27 0.5H73.99C74.556 0.5 75.02 0.958268 75.02 1.53V16.24V16.9538L75.6909 16.7099C75.7177 16.7001 75.7774 16.69 75.88 16.69C76.1469 16.69 76.4099 16.797 76.6064 16.9936ZM7.06 18.81H6.56L9.46 62.57L9.40478 63.0669C9.40539 63.067 9.406 63.0671 9.4066 63.0671C9.52386 63.08 9.63691 63.08 9.72114 63.08H9.73H10.07C11.8161 63.08 13.24 61.6561 13.24 59.91V19.31V18.81H12.74H7.06ZM14.6973 62.3476L14.3128 63.08H15.14H66.06C69.8661 63.08 72.96 59.9861 72.96 56.18V37.78V36.5742L72.1067 37.4262L65.8167 43.7062L65.8164 43.7064L58.0464 51.4764L57.1929 52.33H58.4H66.09C66.6639 52.33 67.12 52.7861 67.12 53.36C67.12 53.9339 66.6639 54.39 66.09 54.39H54.82H54.7215L54.6303 54.4274L42.9703 59.2073L42.966 59.2092C42.8355 59.2641 42.7013 59.29 42.58 59.29C42.3167 59.29 42.0522 59.1855 41.8427 58.9855C41.5547 58.6869 41.4693 58.2504 41.6234 57.8678C41.6235 57.8675 41.6236 57.8673 41.6237 57.8671L42.7629 55.0791L43.0444 54.39H42.3H22.17C21.5961 54.39 21.14 53.9339 21.14 53.36C21.14 52.7861 21.5961 52.33 22.17 52.33H43.56H43.8952L44.0225 52.0199L46.6425 45.6399L46.68 45.5487V45.5279C46.6984 45.4925 46.72 45.4564 46.746 45.4174L46.7556 45.403L46.7641 45.3881C46.7752 45.3687 46.7934 45.3437 46.8336 45.3036C46.8862 45.2509 46.9073 45.2304 46.9323 45.2104L46.9572 45.1906L46.9793 45.1677L47.2793 44.8577L48.0997 44.01H46.92H22.17C21.5961 44.01 21.14 43.5539 21.14 42.98C21.14 42.4061 21.5961 41.95 22.17 41.95H49.98H50.1871L50.3336 41.8036L57.6636 34.4736L58.5171 33.62H57.31H22.17C21.5983 33.62 21.14 33.156 21.14 32.59C21.14 32.024 21.5983 31.56 22.17 31.56H60.37H60.5771L60.7236 31.4136L72.8136 19.3236L72.96 19.1771V18.97V3.06V2.56H72.46H15.8H15.3V3.06V59.91C15.3 60.7859 15.0811 61.6165 14.6973 62.3476ZM48.4936 48.3564L47.9625 47.8254L47.6774 48.5202L46.3974 51.6402L46.3971 51.6409L45.1475 54.7L45.1471 54.7009L44.9175 55.26L44.4638 56.3647L45.5692 55.9128L46.9392 55.3528L46.9396 55.3527L52.3096 53.1527L53.0049 52.8678L52.4736 52.3364L48.4936 48.3564ZM72.8133 33.8038L72.8136 33.8036L76.8136 29.8036L77.1671 29.45L76.8136 29.0964L71.7436 24.0264L71.3903 23.6732L71.0367 24.0262L64.3467 30.7062L64.3464 30.7064L49.4064 45.6464L49.0529 46L49.4064 46.3536L54.4764 51.4236L54.83 51.7771L55.1836 51.4236L64.8033 41.8038L64.8036 41.8036L72.8133 33.8038ZM78.277 27.6341L78.6306 27.9865L78.9836 27.6336L81.3036 25.3136L81.6568 24.9603L81.3039 24.6068L76.2339 19.5268L75.8803 19.1725L75.5264 19.5264L73.1964 21.8564L72.8429 22.21L73.1964 22.5636L75.1664 24.5336L75.167 24.5341L78.277 27.6341Z" fill="#242427" stroke="black"/>
<path d="M23.6996 9.2H23.1996V9.7V20.68V21.18H23.6996H64.5597H65.0597V20.68V9.7V9.2H64.5597H23.6996ZM66.0896 23.24H22.1696C21.6037 23.24 21.1396 22.7817 21.1396 22.21V8.16C21.1396 7.59402 21.5979 7.13 22.1696 7.13H66.0896C66.6556 7.13 67.1196 7.58827 67.1196 8.16V22.21C67.1196 22.776 66.6614 23.24 66.0896 23.24Z" fill="#242427" stroke="black"/>
</g>
<defs>
<filter id="filter0_d_1847_2" x="0" y="0" width="88.6426" height="73.64" filterUnits="userSpaceOnUse" color-interpolation-filters="sRGB">
<feFlood flood-opacity="0" result="BackgroundImageFix"/>
<feColorMatrix in="SourceAlpha" type="matrix" values="0 0 0 0 0 0 0 0 0 0 0 0 0 0 0 0 0 0 127 0" result="hardAlpha"/>
<feOffset dy="4"/>
<feGaussianBlur stdDeviation="2"/>
<feComposite in2="hardAlpha" operator="out"/>
<feColorMatrix type="matrix" values="0 0 0 0 0 0 0 0 0 0 0 0 0 0 0 0 0 0 0.25 0"/>
<feBlend mode="normal" in2="BackgroundImageFix" result="effect1_dropShadow_1847_2"/>
<feBlend mode="normal" in="SourceGraphic" in2="effect1_dropShadow_1847_2" result="shape"/>
</filter>
</defs>
</svg>
