<svg width="33" height="54" viewBox="0 0 33 54" fill="none" xmlns="http://www.w3.org/2000/svg">
<path d="M29.1176 53.3077H3.88235C1.64253 53.3077 0 51.5158 0 49.4253V25.6833C0 23.4434 1.79185 21.6516 3.88235 21.6516H5.37556V11.0498C5.52489 4.9276 10.4525 0 16.5747 0C22.6968 0 27.6244 4.9276 27.6244 11.0498V14.7828C27.6244 15.3801 27.1765 15.9774 26.4299 15.9774H21.0543C20.457 15.9774 19.8597 15.5294 19.8597 14.7828V11.7964C19.8597 9.8552 18.3665 8.36199 16.4253 8.36199C14.4842 8.36199 12.991 9.8552 12.991 11.7964V21.8009H29.1176C31.3575 21.8009 33 23.5928 33 25.8326V49.276C33 51.5158 31.2081 53.3077 29.1176 53.3077ZM3.88235 24.0407C2.98642 24.0407 2.23982 24.7873 2.23982 25.8326V49.276C2.23982 50.172 2.98642 50.9186 3.88235 50.9186H28.9683C29.8643 50.9186 30.6109 50.172 30.6109 49.276V25.6833C30.6109 24.7873 29.8643 23.8914 28.9683 23.8914H11.9457C11.3484 23.8914 10.7511 23.4434 10.7511 22.6968V11.7964C10.7511 8.66063 13.2896 6.12217 16.4253 6.12217C19.5611 6.12217 22.0995 8.66063 22.0995 11.7964V13.5882H25.3846V11.0498C25.3846 6.12217 21.3529 2.23982 16.5747 2.23982C11.7964 2.23982 7.76471 6.27149 7.76471 11.0498V22.8462C7.76471 23.4434 7.31675 24.0407 6.57014 24.0407H3.88235Z" fill="black"/>
<path d="M18.3665 43.9003H14.7828C14.1855 43.9003 13.5882 43.4524 13.5882 42.7057V37.9275C12.8416 37.1809 12.543 36.1356 12.543 35.2397C12.543 32.9999 14.3348 31.208 16.5746 31.208C18.8145 31.208 20.6063 32.9999 20.6063 35.2397C20.6063 36.2849 20.1583 37.1809 19.5611 37.9275V42.7057C19.4117 43.303 18.9638 43.9003 18.3665 43.9003ZM15.828 41.6605H17.1719V37.4795C17.1719 37.1809 17.3212 36.8822 17.6199 36.5836C18.0679 36.2849 18.3665 35.6876 18.3665 35.2397C18.3665 34.1944 17.6199 33.4478 16.5746 33.4478C15.5294 33.4478 14.7828 34.1944 14.7828 35.2397C14.7828 35.837 15.0814 36.2849 15.5294 36.5836C15.828 36.7329 15.9774 37.1809 15.9774 37.4795V41.6605H15.828Z" fill="black"/>
</svg>
