<svg width="23" height="27" viewBox="0 0 23 27" fill="none" xmlns="http://www.w3.org/2000/svg">
<path d="M11.46 3.92001C12.48 3.92001 13.46 4.08001 14.38 4.39001L13.37 4.61001C12.83 4.72001 12.49 5.26001 12.6 5.80001C12.71 6.26001 13.12 6.58001 13.58 6.58001C13.65 6.58001 13.72 6.58001 13.79 6.56001L14.92 6.31001L17.15 5.83001L17.92 5.66001C18.07 5.63001 18.2 5.56001 18.32 5.47001C18.45 5.37001 18.55 5.25001 18.62 5.10001C18.71 4.90001 18.73 4.68001 18.68 4.48001C18.66 4.38001 18.63 4.29001 18.58 4.20001L18.02 3.21001L16.52 0.510006C16.26 0.0300064 15.65 -0.139994 15.16 0.130006C14.68 0.390006 14.51 1.00001 14.78 1.49001L15.4 2.61001C14.17 2.16001 12.84 1.92001 11.46 1.92001C5.15 1.92001 0 7.06001 0 13.38C0 15.62 0.65 17.7 1.76 19.47L2.49 18.74L3.22 18.01C2.44 16.64 2 15.06 2 13.38C2 8.16001 6.25 3.92001 11.46 3.92001Z" fill="#0A0A0A"/>
<path d="M21.1002 7.19995L19.6502 8.64995C20.4602 10.04 20.9202 11.66 20.9202 13.38C20.9202 18.59 16.6802 22.84 11.4602 22.84C10.2302 22.84 9.06025 22.61 7.99025 22.18L9.13025 22.07C9.68025 22.02 10.0902 21.54 10.0302 20.99C9.98025 20.44 9.49025 20.01 8.94025 20.08L8.14025 20.16L5.19025 20.44L4.74025 20.48C4.50025 20.5 4.26025 20.62 4.10025 20.8C4.05025 20.85 4.01025 20.9 3.98025 20.96C3.82025 21.23 3.79025 21.56 3.91025 21.85L3.99025 22.05H4.00025L4.65025 23.65L5.51025 25.76C5.67025 26.15 6.04025 26.38 6.43025 26.38C6.56025 26.38 6.69025 26.36 6.81025 26.31C7.32025 26.1 7.57025 25.51 7.36025 25L6.91025 23.8899C8.31025 24.5 9.85025 24.84 11.4602 24.84C17.7802 24.84 22.9202 19.69 22.9202 13.38C22.9202 11.1 22.2502 8.97995 21.1002 7.19995Z" fill="#0A0A0A"/>
</svg>
