<svg width="64" height="64" viewBox="0 0 64 64" fill="none" xmlns="http://www.w3.org/2000/svg">
<g clip-path="url(#clip0_1639_2448)">
<path d="M62.56 43.79V7.74C62.56 6.9 61.87 6.21 61.03 6.21H49.68V1.53C49.68 0.68 49 0 48.15 0H42.03C41.19 0 40.5 0.68 40.5 1.53V6.21H22.05V1.53C22.05 0.68 21.37 0 20.52 0H14.4C13.56 0 12.87 0.68 12.87 1.53V6.21H1.53C0.68 6.21 0 6.9 0 7.74V55.17C0 56.01 0.68 56.7 1.53 56.7H35.47C38.17 60.84 42.85 63.58 48.15 63.58C56.5 63.58 63.29 56.79 63.29 48.44C63.29 46.82 63.03 45.25 62.56 43.79ZM43.56 3.06H46.62V13.14H43.56V3.06ZM15.93 3.06H18.99V13.14H15.93V3.06ZM3.06 9.28H12.87V14.67C12.87 15.51 13.56 16.2 14.4 16.2H20.52C21.37 16.2 22.05 15.51 22.05 14.67V9.28H40.5V14.67C40.5 15.51 41.19 16.2 42.03 16.2H48.15C49 16.2 49.68 15.51 49.68 14.67V9.28H59.5V22.92H3.06V9.28ZM33.93 53.64H3.06V25.98H59.5V38.44C56.73 35.29 52.67 33.3 48.15 33.3C39.8 33.3 33.01 40.09 33.01 48.44C33.01 50.27 33.34 52.02 33.93 53.64ZM48.15 60.52C44.68 60.52 41.55 59.05 39.34 56.7C38.49 55.8 37.79 54.77 37.25 53.64C36.49 52.07 36.07 50.3 36.07 48.44C36.07 41.78 41.49 36.36 48.15 36.36C53.35 36.36 57.8 39.67 59.5 44.29C59.84 45.22 60.07 46.21 60.17 47.23C60.21 47.63 60.23 48.03 60.23 48.44C60.23 55.1 54.81 60.52 48.15 60.52Z" fill="black"/>
<path d="M55.9901 48.2401H49.6801V42.1401C49.6801 41.3001 49.0001 40.6101 48.1501 40.6101C47.3001 40.6101 46.6201 41.3001 46.6201 42.1401V49.7701C46.6201 50.6201 47.3101 51.3001 48.1501 51.3001H55.9901C56.8301 51.3001 57.5201 50.6201 57.5201 49.7701C57.5201 48.9201 56.8301 48.2401 55.9901 48.2401Z" fill="black"/>
</g>
<defs>
<clipPath id="clip0_1639_2448">
<rect width="63.29" height="63.58" fill="white"/>
</clipPath>
</defs>
</svg>
