<svg width="22" height="24" viewBox="0 0 22 24" fill="none" xmlns="http://www.w3.org/2000/svg">
<path d="M12.3871 0C15.3667 0 18.1997 1.05089 20.4271 2.89704L20.3294 1.2213L21.7948 1.13609L21.9999 4.68639C22.0097 4.88521 21.9315 5.08402 21.785 5.22604C21.6482 5.35858 21.4626 5.43432 21.2672 5.43432C21.2575 5.43432 21.2379 5.43432 21.2282 5.43432L17.5647 5.2355L17.6429 3.81538L19.3916 3.91006C17.4377 2.31953 14.9662 1.42012 12.3774 1.42012C6.3596 1.42012 1.45551 6.16331 1.45551 12.0047C1.45551 17.8462 6.36936 22.5799 12.3871 22.5799V24C5.55853 24 -8.58307e-05 18.613 -8.58307e-05 11.9953C-8.58307e-05 5.37752 5.55853 0 12.3871 0Z" fill="#4D4D4D"/>
<path d="M20.731 12.0049C20.731 7.71615 17.1262 4.22266 12.7008 4.22266C8.27545 4.22266 4.67065 7.71615 4.67065 12.0049C4.67065 16.2937 8.27545 19.7872 12.7106 19.7872C17.1458 19.7872 20.731 16.2937 20.731 12.0049ZM6.14579 12.0049C6.14579 8.50195 9.08628 5.64277 12.7106 5.64277C16.335 5.64277 19.2754 8.49248 19.2754 12.0049C19.2754 15.5173 16.335 18.367 12.7106 18.367C9.08628 18.367 6.14579 15.5079 6.14579 12.0049Z" fill="#4D4D4D"/>
<path d="M16.9112 13.4054V11.9853H13.4431V8.72852H11.9778V12.6954C11.9778 13.0835 12.3099 13.4054 12.7105 13.4054H16.9112Z" fill="#4D4D4D"/>
</svg>
