<svg width="56" height="57" viewBox="0 0 56 57" fill="none" xmlns="http://www.w3.org/2000/svg">
<path d="M53.8437 6.94334H37.8361V1.61473C37.8361 0.645892 37.1893 0 36.2192 0H19.2414C18.2713 0 17.6245 0.645892 17.6245 1.61473V6.94334H1.61693C0.646771 6.94334 0 7.58924 0 8.55807C0 9.52691 0.646771 10.1728 1.61693 10.1728H5.49756L9.37818 55.5467C9.37818 56.3541 10.1866 57 10.9951 57H44.4655C45.274 57 46.0825 56.3541 46.0825 55.5467L49.9631 10.1728H53.8437C54.8139 10.1728 55.4606 9.52691 55.4606 8.55807C55.4606 7.58924 54.8139 6.94334 53.8437 6.94334ZM20.8584 3.22946H34.6023V6.94334H20.8584V3.22946ZM43.0103 53.6091H12.4503L8.73141 10.0113H46.5675L43.0103 53.6091Z" fill="#0A0A0A"/>
<path d="M20.8582 17.2773C19.888 17.2773 19.2412 17.9232 19.2412 18.8921V45.6966C19.2412 46.6654 19.888 47.3113 20.8582 47.3113C21.8283 47.3113 22.4751 46.6654 22.4751 45.6966V18.8921C22.4751 18.0847 21.8283 17.2773 20.8582 17.2773Z" fill="#0A0A0A"/>
<path d="M34.6021 17.2773C33.632 17.2773 32.9852 17.9232 32.9852 18.8921V45.6966C32.9852 46.6654 33.632 47.3113 34.6021 47.3113C35.5723 47.3113 36.2191 46.6654 36.2191 45.6966V18.8921C36.2191 18.0847 35.4106 17.2773 34.6021 17.2773Z" fill="#0A0A0A"/>
</svg>
