<svg width="80" height="65" viewBox="0 0 80 65" fill="none" xmlns="http://www.w3.org/2000/svg">
<path d="M78.1 43.7H70.8V34.5C70.8 33.7 70.1 33 69.3 33H41.3V20.8H48.6C49.4 20.8 50.1 20.1 50.1 19.3V1.5C50.1 0.7 49.4 0 48.6 0H30.9C30.1 0 29.4 0.7 29.4 1.5V19.2C29.4 20 30.1 20.7 30.9 20.7H38.2V33H10.4C9.6 33 8.9 33.7 8.9 34.5V43.7H1.5C0.7 43.7 0 44.4 0 45.2V63C0 63.8 0.7 64.5 1.5 64.5H19.2C20 64.5 20.7 63.8 20.7 63V45.3C20.7 44.5 20 43.8 19.2 43.8H11.9V36.2H38.2V43.8H30.9C30.1 43.8 29.4 44.5 29.4 45.3V63C29.4 63.8 30.1 64.5 30.9 64.5H48.6C49.4 64.5 50.1 63.8 50.1 63V45.3C50.1 44.5 49.4 43.8 48.6 43.8H41.3V36.2H67.6V43.8H60.3C59.5 43.8 58.8 44.5 58.8 45.3V63C58.8 63.8 59.5 64.5 60.3 64.5H78C78.8 64.5 79.5 63.8 79.5 63V45.3C79.6 44.4 78.9 43.7 78.1 43.7ZM32.5 3.1H47.2V17.8H32.5V3.1ZM17.7 61.5H3.1V46.8H17.8V61.5H17.7ZM47.1 61.5H32.5V46.8H47.2V61.5H47.1ZM76.5 61.5H61.9V46.8H76.6V61.5H76.5Z" fill="#0A0A0A"/>
</svg>
